<svg width="138" height="51" viewBox="0 0 138 51" fill="none" xmlns="http://www.w3.org/2000/svg">
<path d="M11.9169 36.6607C8.55641 29.0549 9.52438 23.0038 15.534 16.9317C25.0904 7.27587 39.9532 1.32396 53.6504 2.0615C64.7452 2.6589 72.3462 10.1945 72.6284 21.2481C72.9209 32.6998 64.1406 42.9511 53.4901 46.7399C45.5056 49.5803 32.8143 50.6326 26.0188 44.5026C21.4505 40.3816 19.1004 31.4235 21.509 25.6775C23.9184 19.9295 31.0027 16.616 36.5037 14.491C41.6112 12.5181 47.8106 10.0684 53.3528 9.83558C57.4085 9.66521 61.519 9.77331 65.5775 9.81298C67.6684 9.83342 70.0347 9.87358 71.9875 10.7169C73.3124 11.2892 74.1769 12.5949 75.284 13.474C80.8071 17.8596 81.5213 21.87 80.7325 28.6832C80.1848 33.4141 75.3793 39.0081 71.667 41.8585C70.3812 42.8457 68.9584 43.9218 67.5463 44.706C67.156 44.9227 68.4765 43.7271 68.7825 43.576" stroke="#FFC700" stroke-width="3" stroke-linecap="round" stroke-linejoin="round"/>
<path d="M68 45C71.6795 42.9102 75.0195 40.4236 78.6609 38.3659C82.3951 36.2557 84.9528 32.4642 87.8868 29.4973C88.2898 29.0897 89.107 28 87.8868 28C86.9179 28 86.2678 29.2684 85.6316 29.8659C84.5142 30.9151 79.496 36.2927 83.5814 36.2927C86.4068 36.2927 88.8273 37.1196 87.0895 40.439C86.2511 42.0404 84.066 43.6548 82.4424 44.2629C81.419 44.6462 80.2516 43.9291 80.9161 42.7195C82.2239 40.3392 85.7671 37.8253 88.0007 36.2927C88.7791 35.7585 95.0624 31.6923 95.0624 33.5976C95.0624 35.2441 92.0416 41.2222 90.3698 41.2222C89.3081 41.2222 91.8185 39.6421 92.42 38.7575C93.7892 36.7435 96.5634 34.843 98.8439 34.1274C99.6592 33.8715 102.942 32.4854 103.582 33.0678C104.665 34.0532 103.969 36.1124 103.263 37.0298C102.999 37.3731 99.802 40.8319 99.2539 40.3469C98.9985 40.1209 103.017 37.0014 103.468 36.6843C104.429 36.0086 112.765 30.7846 111.259 35.0488C110.618 36.8641 109.298 38.0682 107.979 39.4024C106.683 40.7125 106.211 40.3112 107.774 39.103C108.368 38.643 115.53 32.9596 115.951 34.4499C116.302 35.691 114.653 37.5818 114.152 38.5501C113.895 39.0468 112.513 41.4014 113.104 39.6098" stroke="#FFC700" stroke-width="3" stroke-linecap="round" stroke-linejoin="round"/>
<path d="M118 28H118" stroke="#FFC700" stroke-width="3" stroke-linecap="round" stroke-linejoin="round"/>
<path d="M123.375 29C123.208 29.9443 120.228 39.7291 121.191 39.9332C123.216 40.3621 126.158 38.6127 128 37.8752" stroke="#FFC700" stroke-width="3" stroke-linecap="round" stroke-linejoin="round"/>
<path d="M119 35L126 33" stroke="#FFC700" stroke-width="3" stroke-linecap="round" stroke-linejoin="round"/>
<path d="M30 40L49 21" stroke="#0FA958" stroke-width="3" stroke-linecap="round" stroke-linejoin="round"/>
<path d="M49 21L59 31" stroke="#F24E1E" stroke-width="3" stroke-linecap="round" stroke-linejoin="round"/>
<path d="M60 31L82 9" stroke="#0FA958" stroke-width="3" stroke-linecap="round" stroke-linejoin="round"/>
<path d="M75 10.612C77.5513 9.82561 80.3009 9.2852 82.7193 8.03829C83.2335 7.77318 82.5803 8.96382 82.4854 9.17922C81.8011 10.7315 83 11.4732 83 13" stroke="#0FA958" stroke-width="3" stroke-linecap="round" stroke-linejoin="round"/>
</svg>
